<svg xmlns="http://www.w3.org/2000/svg" width="31.262" height="24.097" viewBox="0 0 31.262 24.097">
  <path id="Path_15707" data-name="Path 15707" d="M182.162,266.345a2.92,2.92,0,0,1-.7.91q-3.883,4.031-7.771,8.053-4.933,5.114-9.862,10.229c-.4.41-.781.829-1.183,1.231a1.185,1.185,0,0,1-1.829-.023q-3.26-3.5-6.511-7.018c-.85-.917-1.7-1.835-2.554-2.746a5.9,5.9,0,0,1-.66-.874,1.148,1.148,0,0,1,.142-1.437c.574-.6,1.16-1.2,1.768-1.767a1.111,1.111,0,0,1,1.62,0c.685.665,1.322,1.379,1.974,2.076q2.363,2.53,4.723,5.06c.358.382.642.361,1.034-.046q4.344-4.516,8.691-9.028,3.5-3.633,7.011-7.26a1.783,1.783,0,0,1,1.185-.613,1.045,1.045,0,0,1,.788.263c.662.6,1.291,1.237,1.9,1.9a1.455,1.455,0,0,1,.238.422Z" transform="translate(-150.899 -263.091)" fill="#abda5f"/>
</svg>
