<svg xmlns="http://www.w3.org/2000/svg">
   <symbol id="icon-search" viewBox="0 0 32 32">
    <title>Icon Search</title>
    <path d="M31.008 27.231l-7.58-6.447c-0.784-0.705-1.622-1.029-2.299-0.998 1.789-2.096 2.87-4.815 2.87-7.787 0-6.627-5.373-12-12-12s-12 5.373-12 12 5.373 12 12 12c2.972 0 5.691-1.081 7.787-2.87-0.031 0.677 0.293 1.515 0.998 2.299l6.447 7.58c1.104 1.226 2.907 1.33 4.007 0.23s0.997-2.903-0.23-4.007zM12 20c-4.418 0-8-3.582-8-8s3.582-8 8-8 8 3.582 8 8-3.582 8-8 8z"></path>
  </symbol>
  <symbol id="icon-phone" viewBox="0 0 32 32">
    <title>Icon Phone</title>
    <path d="M2.126 1.188c1.278-1.281 5.141-1.495 5.17-0.817 0.029 0.677 3.479 8.191 3.509 8.869s-2.274 2.987-2.948 3.663c-0.668 0.669 4.508 6.533 4.606 6.644 0.11 0.099 5.96 5.287 6.628 4.617 0.674-0.676 2.979-2.985 3.653-2.955 0.676 0.029 8.173 3.487 8.849 3.518 0.676 0.029 0.463 3.9-0.815 5.182-1.093 1.095-6.752 5.071-16.592-2.029-1.079-0.622-2.788-2.049-5.38-4.646-0.001-0.001-0.003-0.003-0.005-0.004-0.002-0.003-0.004-0.004-0.006-0.006s-0.004-0.004-0.006-0.006c-0.001-0.002-0.003-0.004-0.004-0.005-2.59-2.598-4.014-4.312-4.635-5.393-7.083-9.864-3.116-15.537-2.024-16.632z"></path>
  </symbol>
  <symbol id="icon-star" viewBox="0 0 17.393 16.541">
    <title>Icon start</title>
    <path id="Path_14409" data-name="Path 14409" d="M270.13,308.445l2.688,5.445,6.009.873L274.478,319l1.026,5.984-5.373-2.825-5.375,2.825L265.783,319l-4.349-4.238,6.009-.873Z" transform="translate(-261.434 -308.445)" fill="#f9b231"/>
  </symbol> 
</svg>